# Blender v3.2.2 OBJ File: 'piston.blend'
# www.blender.org
o piston_Cylinder
v 0.195865 -3.324320 -0.664285
v 0.195865 -2.521140 -0.664285
v 0.402695 -3.324320 -0.631527
v 0.402695 -2.521140 -0.631527
v 0.589279 -3.324320 -0.536457
v 0.589279 -2.521140 -0.536457
v 0.737353 -3.324320 -0.388383
v 0.737353 -2.521140 -0.388383
v 0.832423 -3.324320 -0.201799
v 0.832423 -2.521140 -0.201799
v 0.865181 -3.324320 0.005031
v 0.865181 -2.521140 0.005031
v 0.832423 -3.324320 0.211861
v 0.832423 -2.521140 0.211861
v 0.737353 -3.324320 0.398445
v 0.737353 -2.521140 0.398445
v 0.589279 -3.324320 0.546519
v 0.589279 -2.521140 0.546519
v 0.402695 -3.324320 0.641589
v 0.402695 -2.521140 0.641589
v 0.195865 -3.324320 0.674347
v 0.195865 -2.521140 0.674347
v -0.010965 -3.324320 0.641589
v -0.010965 -2.521140 0.641589
v -0.197549 -3.324320 0.546519
v -0.197549 -2.521140 0.546519
v -0.345623 -3.324320 0.398445
v -0.345623 -2.521140 0.398445
v -0.440693 -3.324320 0.211861
v -0.440693 -2.521140 0.211861
v -0.473451 -3.324320 0.005031
v -0.473451 -2.521140 0.005031
v -0.440693 -3.324320 -0.201799
v -0.440693 -2.521140 -0.201799
v -0.345623 -3.324320 -0.388383
v -0.345623 -2.521140 -0.388383
v -0.197549 -3.324320 -0.536457
v -0.197549 -2.521140 -0.536457
v -0.010965 -3.324320 -0.631527
v -0.010965 -2.521140 -0.631527
vn 0.1564 0.0000 -0.9877
vn 0.4540 0.0000 -0.8910
vn 0.7071 0.0000 -0.7071
vn 0.8910 0.0000 -0.4540
vn 0.9877 0.0000 -0.1564
vn 0.9877 0.0000 0.1564
vn 0.8910 0.0000 0.4540
vn 0.7071 0.0000 0.7071
vn 0.4540 0.0000 0.8910
vn 0.1564 0.0000 0.9877
vn -0.1564 0.0000 0.9877
vn -0.4540 0.0000 0.8910
vn -0.7071 0.0000 0.7071
vn -0.8910 0.0000 0.4540
vn -0.9877 0.0000 0.1564
vn -0.9877 0.0000 -0.1564
vn -0.8910 0.0000 -0.4540
vn -0.7071 0.0000 -0.7071
vn 0.0000 1.0000 0.0000
vn -0.4540 0.0000 -0.8910
vn -0.1564 0.0000 -0.9877
vn 0.0000 -1.0000 0.0000
s off
f 2//1 3//1 1//1
f 4//2 5//2 3//2
f 6//3 7//3 5//3
f 8//4 9//4 7//4
f 10//5 11//5 9//5
f 12//6 13//6 11//6
f 14//7 15//7 13//7
f 16//8 17//8 15//8
f 18//9 19//9 17//9
f 20//10 21//10 19//10
f 22//11 23//11 21//11
f 24//12 25//12 23//12
f 26//13 27//13 25//13
f 28//14 29//14 27//14
f 30//15 31//15 29//15
f 32//16 33//16 31//16
f 34//17 35//17 33//17
f 36//18 37//18 35//18
f 30//19 14//19 6//19
f 38//20 39//20 37//20
f 40//21 1//21 39//21
f 7//22 15//22 31//22
f 2//1 4//1 3//1
f 4//2 6//2 5//2
f 6//3 8//3 7//3
f 8//4 10//4 9//4
f 10//5 12//5 11//5
f 12//6 14//6 13//6
f 14//7 16//7 15//7
f 16//8 18//8 17//8
f 18//9 20//9 19//9
f 20//10 22//10 21//10
f 22//11 24//11 23//11
f 24//12 26//12 25//12
f 26//13 28//13 27//13
f 28//14 30//14 29//14
f 30//15 32//15 31//15
f 32//16 34//16 33//16
f 34//17 36//17 35//17
f 36//18 38//18 37//18
f 6//19 4//19 2//19
f 2//19 40//19 38//19
f 38//19 36//19 34//19
f 34//19 32//19 30//19
f 30//19 28//19 22//19
f 28//19 26//19 22//19
f 26//19 24//19 22//19
f 22//19 20//19 14//19
f 20//19 18//19 14//19
f 18//19 16//19 14//19
f 14//19 12//19 10//19
f 10//19 8//19 14//19
f 8//19 6//19 14//19
f 6//19 2//19 38//19
f 38//19 34//19 6//19
f 34//19 30//19 6//19
f 30//19 22//19 14//19
f 38//20 40//20 39//20
f 40//21 2//21 1//21
f 39//22 1//22 3//22
f 3//22 5//22 39//22
f 5//22 7//22 39//22
f 7//22 9//22 15//22
f 9//22 11//22 15//22
f 11//22 13//22 15//22
f 15//22 17//22 23//22
f 17//22 19//22 23//22
f 19//22 21//22 23//22
f 23//22 25//22 27//22
f 27//22 29//22 31//22
f 31//22 33//22 35//22
f 35//22 37//22 31//22
f 37//22 39//22 31//22
f 23//22 27//22 15//22
f 27//22 31//22 15//22
f 39//22 7//22 31//22
o vertical_Cylinder.002
v 0.310096 -1.689683 0.042883
v 0.138749 -1.689683 0.156438
v 0.138749 -1.689683 -0.146377
v 0.310096 -1.689683 -0.032821
v 0.195865 -1.689683 0.156438
v 0.081634 -1.689683 -0.032821
v 0.252980 -1.689683 -0.146377
v 0.252980 -1.689683 0.156438
v 0.081634 -1.689683 0.042883
v 0.195865 -1.689683 -0.146377
v 0.252980 -2.925441 -0.146377
v 0.195865 -2.925441 -0.146377
v 0.310096 -2.925441 -0.032821
v 0.310096 -2.925441 0.042883
v 0.252980 -2.925441 0.156438
v 0.195865 -2.925441 0.156438
v 0.138749 -2.925441 0.156438
v 0.081634 -2.925441 0.042883
v 0.081634 -2.925441 -0.032821
v 0.138749 -2.925441 -0.146377
v 0.278988 -0.807365 -0.234133
v 0.195865 -0.807365 -0.234133
v 0.362112 -0.807365 -0.054760
v 0.362112 -0.807365 0.064822
v 0.278988 -0.807365 0.244195
v 0.195865 -0.807365 0.244195
v 0.112742 -0.807365 0.244195
v 0.029618 -0.807365 0.064822
v 0.029618 -0.807365 -0.054760
v 0.112742 -0.807365 -0.234133
v -0.101569 0.295202 -0.454784
v 0.433132 0.073767 -0.505326
v -0.101569 0.472780 -0.313171
v 0.433132 -0.147669 -0.454784
v -0.101569 0.571328 -0.108534
v 0.433132 -0.325246 -0.313171
v -0.101569 0.571328 0.118596
v 0.433132 -0.423794 -0.108534
v -0.101569 0.472780 0.323233
v 0.433132 -0.423794 0.118596
v -0.101569 0.295202 0.464846
v 0.433132 -0.325246 0.323233
v -0.101569 0.073767 0.515387
v 0.433132 -0.147669 0.464846
v -0.101569 -0.147669 0.464846
v 0.433132 0.073767 0.515387
v -0.101569 -0.325246 0.323233
v 0.433132 0.295202 0.464846
v -0.101569 -0.423794 0.118596
v 0.433132 0.472780 0.323233
v -0.101569 -0.423794 -0.108534
v 0.433132 0.571328 0.118596
v -0.101569 -0.325246 -0.313171
v 0.433132 0.571328 -0.108534
v -0.101569 -0.147669 -0.454784
v 0.433132 0.472780 -0.313171
v -0.101569 0.073767 -0.505326
v 0.433132 0.295202 -0.454784
v 0.433132 -0.241122 -0.648842
v 0.433132 0.073767 -0.720714
v 0.433132 -0.487046 -0.490068
v 0.433132 -0.640379 -0.171668
v 0.433132 -0.640379 0.181730
v 0.433132 -0.487046 0.500129
v 0.433132 -0.241122 0.658904
v 0.433132 0.073767 0.730775
v 0.433132 0.388656 0.658904
v 0.433132 0.641177 0.457525
v 0.433132 0.781316 0.166524
v 0.433132 0.781316 -0.156462
v 0.433132 0.641177 -0.447463
v 0.433132 0.388656 -0.648842
v 0.433132 -0.241122 -0.648842
v 0.433132 0.073767 -0.720714
v 0.433132 -0.487046 -0.490068
v 0.433132 -0.640379 -0.171668
v 0.433132 -0.640379 0.181730
v 0.433132 -0.487046 0.500129
v 0.433132 -0.241122 0.658904
v 0.433132 0.073767 0.730775
v 0.433132 0.388656 0.658904
v 0.433132 0.641177 0.457525
v 0.433132 0.781316 0.166524
v 0.433132 0.781316 -0.156462
v 0.433132 0.641177 -0.447463
v 0.433132 0.388656 -0.648842
v -0.101569 -0.241122 -0.648842
v -0.101569 0.073767 -0.720714
v -0.101569 -0.487046 -0.490068
v -0.101569 -0.640379 -0.171668
v -0.101569 -0.640379 0.181730
v -0.101569 -0.487046 0.500129
v -0.101569 -0.241122 0.658904
v -0.101569 0.073767 0.730775
v -0.101569 0.388656 0.658904
v -0.101569 0.641177 0.457525
v -0.101569 0.781316 0.166524
v -0.101569 0.781316 -0.156462
v -0.101569 0.641177 -0.447463
v -0.101569 0.388656 -0.648842
v -0.101569 -0.241122 -0.648842
v -0.101569 0.073767 -0.720714
v -0.101569 -0.487046 -0.490068
v -0.101569 -0.640379 -0.171668
v -0.101569 -0.640379 0.181730
v -0.101569 -0.487046 0.500129
v -0.101569 -0.241122 0.658904
v -0.101569 0.073767 0.730775
v -0.101569 0.388656 0.658904
v -0.101569 0.641177 0.457525
v -0.101569 0.781316 0.166524
v -0.101569 0.781316 -0.156462
v -0.101569 0.641177 -0.447463
v -0.101569 0.388656 -0.648842
v 0.135560 -1.126044 -0.154830
v 0.195865 -1.126044 -0.154830
v 0.135560 -1.126044 0.164892
v 0.075256 -1.126044 0.044996
v 0.316474 -1.126044 0.044996
v 0.256169 -1.126044 0.164892
v 0.256169 -1.126044 -0.154830
v 0.075256 -1.126044 -0.034934
v 0.195865 -1.126044 0.164892
v 0.316474 -1.126044 -0.034934
vn -0.8934 0.0000 -0.4493
vn 0.0000 -0.2415 -0.9704
vn 0.0000 0.0000 -1.0000
vn 0.8934 0.0000 -0.4493
vn 1.0000 0.0000 0.0000
vn 0.8934 0.0000 0.4493
vn 0.0000 0.0000 1.0000
vn -0.8934 0.0000 0.4493
vn -1.0000 0.0000 0.0000
vn 0.0000 1.0000 0.0000
vn -0.8827 -0.1540 0.4440
vn 0.8945 -0.1672 0.4145
vn -0.9899 -0.1418 0.0000
vn 0.0000 -0.2415 0.9704
vn 0.8827 -0.1540 -0.4440
vn -0.8945 -0.1672 -0.4145
vn 0.9899 -0.1418 0.0000
vn 0.0000 0.2225 -0.9749
vn 0.0000 0.6235 -0.7818
vn -0.6393 -0.7096 -0.2962
vn 0.0000 -0.2225 -0.9749
vn 0.0000 0.2225 0.9749
vn 0.0000 -0.6235 0.7818
vn 0.0000 0.5424 -0.8401
vn 0.0000 -1.0000 0.0000
vn 0.7551 -0.5907 -0.2844
vn 0.0000 -0.6235 -0.7818
vn 0.0000 -0.2225 0.9749
vn 0.0000 0.5424 0.8401
vn 0.0000 -0.9010 0.4339
vn 0.7502 -0.5625 -0.3476
vn 0.0000 -0.9010 -0.4339
vn -0.7864 -0.6178 0.0000
vn 0.9202 -0.3914 0.0000
vn 0.0000 0.6242 0.7813
vn 0.7502 -0.5625 0.3476
vn 0.6380 0.6938 -0.3341
vn 0.7551 -0.5907 0.2844
vn 0.0000 0.6242 -0.7813
vn 0.0000 0.6235 0.7818
vn 0.0000 0.9010 0.4339
vn 0.0000 0.9010 -0.4339
vn 0.9999 -0.0113 0.0000
vn 0.0000 -0.0150 0.9999
vn -0.8933 -0.0118 -0.4493
vn 0.8933 -0.0118 -0.4493
vn -0.9999 -0.0113 0.0000
vn 0.0000 -0.0150 -0.9999
vn 0.8933 -0.0118 0.4493
vn -0.8933 -0.0118 0.4493
vn -0.8945 -0.1672 0.4145
vn 0.8827 -0.1540 0.4440
vn 0.8945 -0.1672 -0.4145
vn -0.8827 -0.1540 -0.4440
vn 0.0000 -0.6242 -0.7813
vn 0.6380 0.6938 0.3341
vn -0.6393 -0.7096 0.2962
vn 0.0000 -0.6242 0.7813
s off
f 59//23 43//23 60//23
f 155//24 62//24 156//24
f 60//25 50//25 52//25
f 52//25 47//25 51//25
f 51//26 44//26 53//26
f 53//27 41//27 54//27
f 54//28 48//28 55//28
f 55//29 45//29 56//29
f 56//29 42//29 57//29
f 57//30 49//30 58//30
f 58//31 46//31 59//31
f 64//32 63//32 69//32
f 157//33 68//33 158//33
f 160//34 64//34 65//34
f 161//24 62//24 61//24
f 162//35 68//35 69//35
f 160//36 66//36 163//36
f 161//37 63//37 164//37
f 155//38 69//38 70//38
f 157//36 66//36 67//36
f 159//39 63//39 64//39
f 153//29 140//29 139//29
f 151//29 138//29 137//29
f 150//29 137//29 136//29
f 149//29 136//29 135//29
f 148//29 135//29 134//29
f 147//29 134//29 133//29
f 146//29 133//29 132//29
f 145//29 132//29 131//29
f 144//29 131//29 130//29
f 143//29 130//29 129//29
f 141//29 129//29 127//29
f 142//29 127//29 128//29
f 72//40 71//40 98//40
f 98//41 73//41 96//41
f 152//29 139//29 138//29
f 154//29 128//29 140//29
f 114//29 99//29 113//29
f 113//29 101//29 115//29
f 115//29 102//29 116//29
f 116//29 103//29 117//29
f 117//29 104//29 118//29
f 118//29 105//29 119//29
f 119//29 106//29 120//29
f 120//29 107//29 121//29
f 121//29 108//29 122//29
f 122//29 109//29 123//29
f 123//29 110//29 124//29
f 124//29 111//29 125//29
f 125//29 112//29 126//29
f 126//29 100//29 114//29
f 72//31 113//31 74//31
f 74//31 115//31 76//31
f 76//31 116//31 78//31
f 116//31 80//31 78//31
f 117//31 82//31 80//31
f 118//31 84//31 82//31
f 119//31 86//31 84//31
f 86//31 121//31 88//31
f 88//31 122//31 90//31
f 90//31 123//31 92//31
f 123//31 94//31 92//31
f 124//31 96//31 94//31
f 125//31 98//31 96//31
f 126//31 72//31 98//31
f 97//27 141//27 142//27
f 95//27 143//27 141//27
f 93//27 144//27 143//27
f 89//27 144//27 91//27
f 87//27 145//27 89//27
f 85//27 146//27 87//27
f 83//27 147//27 85//27
f 83//27 149//27 148//27
f 81//27 150//27 149//27
f 79//27 151//27 150//27
f 75//27 151//27 77//27
f 73//27 152//27 75//27
f 71//27 153//27 73//27
f 97//27 154//27 71//27
f 69//42 130//42 70//42
f 107//43 134//43 135//43
f 100//44 127//44 99//44
f 111//45 140//45 112//45
f 104//46 133//46 105//46
f 109//47 138//47 110//47
f 61//48 101//48 102//48
f 107//49 136//49 108//49
f 112//50 128//50 100//50
f 99//51 129//51 101//51
f 106//40 133//40 134//40
f 110//52 139//52 111//52
f 102//53 63//53 61//53
f 108//54 137//54 109//54
f 130//55 68//55 131//55
f 103//56 63//56 102//56
f 129//57 70//57 62//57
f 101//57 129//57 62//57
f 131//29 67//29 145//29
f 64//58 103//58 65//58
f 132//59 67//59 131//59
f 104//60 65//60 103//60
f 104//61 66//61 132//61
f 74//43 97//43 72//43
f 76//49 95//49 74//49
f 78//54 93//54 76//54
f 80//47 91//47 78//47
f 82//52 89//52 80//52
f 84//45 87//45 82//45
f 86//50 85//50 84//50
f 88//44 83//44 86//44
f 90//62 81//62 88//62
f 92//63 79//63 90//63
f 94//32 77//32 92//32
f 96//64 75//64 94//64
f 44//65 159//65 41//65
f 42//66 163//66 157//66
f 43//67 162//67 155//67
f 47//68 164//68 44//68
f 48//66 163//66 45//66
f 49//69 162//69 46//69
f 47//70 156//70 161//70
f 48//71 159//71 160//71
f 42//72 158//72 49//72
f 43//70 156//70 50//70
f 59//23 46//23 43//23
f 155//24 70//24 62//24
f 60//25 43//25 50//25
f 52//25 50//25 47//25
f 51//26 47//26 44//26
f 53//27 44//27 41//27
f 54//28 41//28 48//28
f 55//29 48//29 45//29
f 56//29 45//29 42//29
f 57//30 42//30 49//30
f 58//31 49//31 46//31
f 63//32 61//32 62//32
f 62//32 70//32 69//32
f 69//32 68//32 64//32
f 68//32 67//32 66//32
f 66//32 65//32 64//32
f 68//32 66//32 64//32
f 63//32 62//32 69//32
f 157//73 67//73 68//73
f 160//74 159//74 64//74
f 161//24 156//24 62//24
f 162//35 158//35 68//35
f 160//36 65//36 66//36
f 161//75 61//75 63//75
f 155//76 162//76 69//76
f 157//36 163//36 66//36
f 159//39 164//39 63//39
f 153//29 154//29 140//29
f 151//29 152//29 138//29
f 150//29 151//29 137//29
f 149//29 150//29 136//29
f 148//29 149//29 135//29
f 147//29 148//29 134//29
f 146//29 147//29 133//29
f 145//29 146//29 132//29
f 144//29 145//29 131//29
f 143//29 144//29 130//29
f 141//29 143//29 129//29
f 142//29 141//29 127//29
f 72//40 97//40 71//40
f 98//41 71//41 73//41
f 152//29 153//29 139//29
f 154//29 142//29 128//29
f 114//29 100//29 99//29
f 113//29 99//29 101//29
f 115//29 101//29 102//29
f 116//29 102//29 103//29
f 117//29 103//29 104//29
f 118//29 104//29 105//29
f 119//29 105//29 106//29
f 120//29 106//29 107//29
f 121//29 107//29 108//29
f 122//29 108//29 109//29
f 123//29 109//29 110//29
f 124//29 110//29 111//29
f 125//29 111//29 112//29
f 126//29 112//29 100//29
f 72//31 114//31 113//31
f 74//31 113//31 115//31
f 76//31 115//31 116//31
f 116//31 117//31 80//31
f 117//31 118//31 82//31
f 118//31 119//31 84//31
f 119//31 120//31 86//31
f 86//31 120//31 121//31
f 88//31 121//31 122//31
f 90//31 122//31 123//31
f 123//31 124//31 94//31
f 124//31 125//31 96//31
f 125//31 126//31 98//31
f 126//31 114//31 72//31
f 97//27 95//27 141//27
f 95//27 93//27 143//27
f 93//27 91//27 144//27
f 89//27 145//27 144//27
f 87//27 146//27 145//27
f 85//27 147//27 146//27
f 83//27 148//27 147//27
f 83//27 81//27 149//27
f 81//27 79//27 150//27
f 79//27 77//27 151//27
f 75//27 152//27 151//27
f 73//27 153//27 152//27
f 71//27 154//27 153//27
f 97//27 142//27 154//27
f 107//43 106//43 134//43
f 100//44 128//44 127//44
f 111//45 139//45 140//45
f 104//46 132//46 133//46
f 109//47 137//47 138//47
f 61//77 62//77 101//77
f 107//49 135//49 136//49
f 112//50 140//50 128//50
f 99//51 127//51 129//51
f 106//40 105//40 133//40
f 110//52 138//52 139//52
f 108//54 136//54 137//54
f 130//55 69//55 68//55
f 103//56 64//56 63//56
f 129//78 130//78 70//78
f 131//79 68//79 67//79
f 132//61 66//61 67//61
f 104//80 66//80 65//80
f 74//43 95//43 97//43
f 76//49 93//49 95//49
f 78//54 91//54 93//54
f 80//47 89//47 91//47
f 82//52 87//52 89//52
f 84//45 85//45 87//45
f 86//50 83//50 85//50
f 88//44 81//44 83//44
f 90//62 79//62 81//62
f 92//63 77//63 79//63
f 94//32 75//32 77//32
f 96//64 73//64 75//64
f 44//65 164//65 159//65
f 42//66 45//66 163//66
f 43//67 46//67 162//67
f 47//68 161//68 164//68
f 48//66 160//66 163//66
f 49//69 158//69 162//69
f 47//70 50//70 156//70
f 48//71 41//71 159//71
f 42//72 157//72 158//72
f 43//70 155//70 156//70
o botton_axis_Cylinder.004
v -0.231159 -2.921412 -0.094697
v 0.622889 -2.921412 -0.094697
v -0.231159 -2.991930 -0.065487
v 0.622889 -2.991930 -0.065487
v -0.231159 -3.021139 0.005031
v 0.622889 -3.021139 0.005031
v -0.231159 -2.991930 0.075549
v 0.622889 -2.991930 0.075549
v -0.231159 -2.921412 0.104759
v 0.622889 -2.921412 0.104759
v -0.231159 -2.850894 0.075549
v 0.622889 -2.850894 0.075549
v -0.231159 -2.821684 0.005031
v 0.622889 -2.821684 0.005031
v -0.231159 -2.850894 -0.065487
v 0.622889 -2.850894 -0.065487
vn 0.0000 -0.3827 -0.9239
vn 0.0000 -0.9239 -0.3827
vn 0.0000 -0.9239 0.3827
vn 0.0000 -0.3827 0.9239
vn 0.0000 0.3827 0.9239
vn 0.0000 0.9239 0.3827
vn 1.0000 0.0000 0.0000
vn 0.0000 0.9239 -0.3827
vn 0.0000 0.3827 -0.9239
vn -1.0000 0.0000 0.0000
s off
f 166//81 167//81 165//81
f 168//82 169//82 167//82
f 170//83 171//83 169//83
f 172//84 173//84 171//84
f 174//85 175//85 173//85
f 176//86 177//86 175//86
f 170//87 166//87 178//87
f 178//88 179//88 177//88
f 180//89 165//89 179//89
f 171//90 175//90 179//90
f 166//81 168//81 167//81
f 168//82 170//82 169//82
f 170//83 172//83 171//83
f 172//84 174//84 173//84
f 174//85 176//85 175//85
f 176//86 178//86 177//86
f 170//87 168//87 166//87
f 166//87 180//87 178//87
f 178//87 176//87 174//87
f 174//87 172//87 178//87
f 172//87 170//87 178//87
f 178//88 180//88 179//88
f 180//89 166//89 165//89
f 179//90 165//90 167//90
f 167//90 169//90 171//90
f 171//90 173//90 175//90
f 175//90 177//90 179//90
f 179//90 167//90 171//90
o volant_top_axis
v -0.462348 0.721436 0.918418
v -0.462348 1.112096 1.365412
v -0.462348 1.483630 1.114428
v -0.462348 1.759534 0.729610
v -0.462348 1.906530 0.257376
v -0.462348 1.906886 -0.245317
v -0.462348 1.760562 -0.717838
v -0.462348 1.485204 -1.103193
v -0.462348 1.114027 -1.354902
v -0.462348 0.722733 -0.908385
v -0.462348 0.323898 -0.653446
v -0.462348 -0.211811 -0.567882
v -0.462348 -0.445070 -0.369286
v -0.462348 -0.558295 -0.122975
v -0.462348 -0.558591 0.131273
v -0.462348 -0.445939 0.377713
v -0.462348 -0.213142 0.576587
v -0.462348 0.322893 0.662963
v -0.155059 0.721436 0.918418
v -0.155059 1.112096 1.365412
v -0.155059 1.483630 1.114428
v -0.155059 1.759534 0.729610
v -0.155059 1.906530 0.257376
v -0.155059 1.906886 -0.245317
v -0.155059 1.760562 -0.717838
v -0.155059 1.485204 -1.103193
v -0.155059 1.114027 -1.354902
v -0.155059 0.722733 -0.908385
v -0.155059 0.323898 -0.653446
v -0.155059 -0.211811 -0.567882
v -0.155059 -0.445070 -0.369286
v -0.155059 -0.558295 -0.122975
v -0.155059 -0.558590 0.131273
v -0.155059 -0.445939 0.377713
v -0.155059 -0.213142 0.576587
v -0.155059 0.322893 0.662963
vn 1.0000 0.0000 -0.0000
vn -1.0000 0.0000 0.0000
vn 0.0000 -0.8136 0.5814
vn -0.0000 0.9095 -0.4157
vn 0.0000 -0.5613 0.8276
vn -0.0000 0.7530 -0.6581
vn 0.0000 0.6495 -0.7603
vn 0.0000 0.7521 0.6591
vn 0.0000 -0.5598 -0.8286
vn 0.0000 0.1591 -0.9873
vn 0.0000 0.5386 0.8426
vn 0.0000 -0.8127 -0.5827
vn -0.0000 0.5396 -0.8419
vn 0.0000 0.1577 0.9875
vn 0.0000 -0.9548 -0.2972
vn 0.0000 0.6483 0.7614
vn 0.0000 -1.0000 -0.0007
vn 0.0000 0.9086 0.4177
vn 0.0000 -0.9552 0.2958
vn 0.0000 1.0000 0.0012
s off
f 191//91 190//91 186//91
f 209//92 210//92 216//92
f 188//93 205//93 187//93
f 196//94 213//94 195//94
f 189//95 206//95 188//95
f 182//96 199//96 181//96
f 197//97 214//97 196//97
f 190//98 207//98 189//98
f 182//99 201//99 200//99
f 198//100 215//100 197//100
f 191//101 208//101 190//101
f 184//102 201//102 183//102
f 181//103 216//103 198//103
f 192//104 209//104 191//104
f 185//105 202//105 184//105
f 193//106 210//106 192//106
f 186//107 203//107 185//107
f 194//108 211//108 193//108
f 187//109 204//109 186//109
f 195//110 212//110 194//110
f 198//91 197//91 192//91
f 197//91 196//91 193//91
f 192//91 197//91 193//91
f 196//91 195//91 194//91
f 194//91 193//91 196//91
f 192//91 191//91 198//91
f 183//91 182//91 181//91
f 181//91 198//91 185//91
f 198//91 191//91 186//91
f 184//91 183//91 181//91
f 186//91 185//91 198//91
f 185//91 184//91 181//91
f 188//91 187//91 190//91
f 187//91 186//91 190//91
f 190//91 189//91 188//91
f 199//92 200//92 201//92
f 201//92 202//92 199//92
f 202//92 203//92 199//92
f 203//92 204//92 216//92
f 204//92 205//92 208//92
f 209//92 204//92 208//92
f 205//92 206//92 208//92
f 206//92 207//92 208//92
f 204//92 209//92 216//92
f 216//92 199//92 203//92
f 214//92 215//92 211//92
f 215//92 216//92 210//92
f 212//92 213//92 214//92
f 210//92 211//92 215//92
f 211//92 212//92 214//92
f 188//93 206//93 205//93
f 196//94 214//94 213//94
f 189//95 207//95 206//95
f 182//96 200//96 199//96
f 197//97 215//97 214//97
f 190//98 208//98 207//98
f 182//99 183//99 201//99
f 198//100 216//100 215//100
f 191//101 209//101 208//101
f 184//102 202//102 201//102
f 181//103 199//103 216//103
f 192//104 210//104 209//104
f 185//105 203//105 202//105
f 193//106 211//106 210//106
f 186//107 204//107 203//107
f 194//108 212//108 211//108
f 187//109 205//109 204//109
f 195//110 213//110 212//110
o upper_axis_top_axis.001
v -0.411636 0.072025 -0.487779
v 0.460695 0.072025 -0.487779
v -0.411636 -0.141797 -0.438976
v 0.460695 -0.141797 -0.438976
v -0.411636 -0.313269 -0.302231
v 0.460695 -0.313269 -0.302231
v -0.411636 -0.408429 -0.104630
v 0.460695 -0.408429 -0.104630
v -0.411636 -0.408429 0.114691
v 0.460695 -0.408429 0.114691
v -0.411636 -0.313269 0.312293
v 0.460695 -0.313269 0.312293
v -0.411636 -0.141797 0.449037
v 0.460695 -0.141797 0.449037
v -0.411636 0.072025 0.497841
v 0.460695 0.072025 0.497841
v -0.411636 0.285847 0.449037
v 0.460695 0.285847 0.449037
v -0.411636 0.457320 0.312293
v 0.460695 0.457320 0.312293
v -0.411636 0.552479 0.114692
v 0.460696 0.552479 0.114692
v -0.411636 0.552479 -0.104630
v 0.460696 0.552479 -0.104630
v -0.411636 0.457320 -0.302231
v 0.460695 0.457320 -0.302231
v -0.411636 0.285847 -0.438976
v 0.460695 0.285847 -0.438976
vn 0.0000 -0.2225 -0.9749
vn 0.0000 -0.6235 -0.7818
vn 0.0000 -0.9010 -0.4339
vn 0.0000 -1.0000 0.0000
vn 0.0000 -0.9010 0.4339
vn 0.0000 -0.6235 0.7818
vn 0.0000 -0.2225 0.9749
vn 0.0000 0.2225 0.9749
vn 0.0000 0.6235 0.7818
vn 0.0000 0.9010 0.4339
vn 0.0000 1.0000 0.0000
vn 0.0000 0.9010 -0.4339
vn 1.0000 -0.0000 0.0000
vn 0.0000 0.6235 -0.7818
vn 0.0000 0.2225 -0.9749
vn -1.0000 0.0000 0.0000
s off
f 218//111 219//111 217//111
f 220//112 221//112 219//112
f 222//113 223//113 221//113
f 224//114 225//114 223//114
f 226//115 227//115 225//115
f 228//116 229//116 227//116
f 230//117 231//117 229//117
f 232//118 233//118 231//118
f 234//119 235//119 233//119
f 236//120 237//120 235//120
f 238//121 239//121 237//121
f 240//122 241//122 239//122
f 242//123 234//123 226//123
f 242//124 243//124 241//124
f 244//125 217//125 243//125
f 227//126 231//126 239//126
f 218//111 220//111 219//111
f 220//112 222//112 221//112
f 222//113 224//113 223//113
f 224//114 226//114 225//114
f 226//115 228//115 227//115
f 228//116 230//116 229//116
f 230//117 232//117 231//117
f 232//118 234//118 233//118
f 234//119 236//119 235//119
f 236//120 238//120 237//120
f 238//121 240//121 239//121
f 240//122 242//122 241//122
f 222//123 220//123 218//123
f 218//123 244//123 222//123
f 244//123 242//123 222//123
f 242//123 240//123 238//123
f 238//123 236//123 234//123
f 234//123 232//123 230//123
f 230//123 228//123 226//123
f 226//123 224//123 222//123
f 242//123 238//123 234//123
f 234//123 230//123 226//123
f 226//123 222//123 242//123
f 242//124 244//124 243//124
f 244//125 218//125 217//125
f 243//126 217//126 219//126
f 219//126 221//126 223//126
f 223//126 225//126 227//126
f 227//126 229//126 231//126
f 231//126 233//126 239//126
f 233//126 235//126 239//126
f 235//126 237//126 239//126
f 239//126 241//126 243//126
f 243//126 219//126 239//126
f 219//126 223//126 239//126
f 223//126 227//126 239//126
